<svg width="60" height="60" viewBox="0 0 60 60" fill="none" xmlns="http://www.w3.org/2000/svg">
<path d="M54.6094 0C51.7016 0 49.3359 2.36566 49.3359 5.27344C49.3359 9.47355 45.9189 12.8906 41.7188 12.8906H41.4136C42.3431 11.5608 42.8906 9.94512 42.8906 8.20312C42.8906 3.67992 39.2107 0 34.6875 0C30.1643 0 26.4844 3.67992 26.4844 8.20312C26.4844 9.94512 27.0319 11.5608 27.9614 12.8906H21.4917C22.4212 11.5608 22.9688 9.94512 22.9688 8.20312C22.9688 3.67992 19.2888 0 14.7656 0C10.2424 0 6.5625 3.67992 6.5625 8.20312C6.5625 10.2315 7.30418 12.0889 8.52844 13.5224C3.64594 15.1552 0.117188 19.7707 0.117188 25.1953V35.7422C0.117188 38.0038 1.95715 39.8438 4.21875 39.8438H5.97656V58.2422C5.97656 59.213 6.76359 60 7.73438 60H21.7969C22.7677 60 23.5547 59.213 23.5547 58.2422V39.8012C23.7462 39.8288 23.9416 39.8438 24.1406 39.8438H25.8984V58.2422C25.8984 59.213 26.6855 60 27.6562 60H41.7188C42.6895 60 43.4766 59.213 43.4766 58.2422V23.3531C52.6706 22.4661 59.8828 14.6961 59.8828 5.27344C59.8828 2.36566 57.5171 0 54.6094 0V0ZM34.6875 3.51562C37.2722 3.51562 39.375 5.61844 39.375 8.20312C39.375 10.7878 37.2722 12.8906 34.6875 12.8906C32.1028 12.8906 30 10.7878 30 8.20312C30 5.61844 32.1028 3.51562 34.6875 3.51562ZM14.7656 3.51562C17.3503 3.51562 19.4531 5.61844 19.4531 8.20312C19.4531 10.7878 17.3503 12.8906 14.7656 12.8906C12.1809 12.8906 10.0781 10.7878 10.0781 8.20312C10.0781 5.61844 12.1809 3.51562 14.7656 3.51562ZM20.0391 56.4844H16.5234V41.6016C16.5234 40.6308 15.7364 39.8438 14.7656 39.8438C13.7948 39.8438 13.0078 40.6308 13.0078 41.6016V56.4844H9.49219V38.0859C9.49219 37.1152 8.70516 36.3281 7.73438 36.3281H4.21875C3.89566 36.3281 3.63281 36.0653 3.63281 35.7422V25.1953C3.63281 20.349 7.57559 16.4062 12.4219 16.4062H23.7417C21.4586 18.6414 20.0391 21.7554 20.0391 25.1953V56.4844ZM41.7188 19.9219C40.748 19.9219 39.9609 20.7089 39.9609 21.6797V56.4844H36.4453V41.6016C36.4453 40.6308 35.6583 39.8438 34.6875 39.8438C33.7167 39.8438 32.9297 40.6308 32.9297 41.6016V56.4844H29.4141V38.0859C29.4141 37.1152 28.627 36.3281 27.6562 36.3281H24.1406C23.8175 36.3281 23.5547 36.0653 23.5547 35.7422V25.1953C23.5547 20.349 27.4975 16.4062 32.3438 16.4062H41.7188C47.8574 16.4062 52.8516 11.4121 52.8516 5.27344C52.8516 4.30418 53.6401 3.51562 54.6094 3.51562C55.5786 3.51562 56.3672 4.30418 56.3672 5.27344C56.3672 13.3506 49.7959 19.9219 41.7188 19.9219Z" fill="#0073E6"/>
</svg>
