<svg width="60" height="60" viewBox="0 0 60 60" fill="none" xmlns="http://www.w3.org/2000/svg">
<path fill-rule="evenodd" clip-rule="evenodd" d="M55.3125 2.8125H4.6875C3.94185 2.81337 3.22698 3.10996 2.69972 3.63722C2.17246 4.16448 1.87587 4.87935 1.875 5.625V54.375C1.87587 55.1207 2.17246 55.8355 2.69972 56.3628C3.22698 56.89 3.94185 57.1866 4.6875 57.1875H55.3125C56.0582 57.1866 56.773 56.89 57.3003 56.3628C57.8275 55.8355 58.1241 55.1207 58.125 54.375V5.625C58.1241 4.87935 57.8275 4.16448 57.3003 3.63722C56.773 3.10996 56.0582 2.81337 55.3125 2.8125ZM4.6875 4.6875H55.3125C55.5611 4.68778 55.7994 4.78664 55.9751 4.9624C56.1509 5.13815 56.2497 5.37645 56.25 5.625V10.3125H3.75V5.625C3.75028 5.37645 3.84914 5.13815 4.0249 4.9624C4.20065 4.78664 4.43895 4.68778 4.6875 4.6875ZM55.9751 55.0376C55.7994 55.2134 55.5611 55.3122 55.3125 55.3125H4.6875C4.43895 55.3122 4.20065 55.2134 4.0249 55.0376C3.84914 54.8619 3.75028 54.6236 3.75 54.375V12.1875H56.25V54.375C56.2497 54.6236 56.1509 54.8619 55.9751 55.0376ZM14.0625 8.4375C14.5803 8.4375 15 8.01777 15 7.5C15 6.98223 14.5803 6.5625 14.0625 6.5625C13.5447 6.5625 13.125 6.98223 13.125 7.5C13.125 8.01777 13.5447 8.4375 14.0625 8.4375ZM11.25 7.5C11.25 8.01777 10.8303 8.4375 10.3125 8.4375C9.79473 8.4375 9.375 8.01777 9.375 7.5C9.375 6.98223 9.79473 6.5625 10.3125 6.5625C10.8303 6.5625 11.25 6.98223 11.25 7.5ZM6.5625 8.4375C7.08027 8.4375 7.5 8.01777 7.5 7.5C7.5 6.98223 7.08027 6.5625 6.5625 6.5625C6.04473 6.5625 5.625 6.98223 5.625 7.5C5.625 8.01777 6.04473 8.4375 6.5625 8.4375ZM18.0871 38.7121C18.2629 38.5363 18.5014 38.4375 18.75 38.4375H41.25C41.4986 38.4375 41.7371 38.5363 41.9129 38.7121C42.0887 38.8879 42.1875 39.1264 42.1875 39.375V43.125C42.1875 43.3736 42.0887 43.6121 41.9129 43.7879C41.7371 43.9637 41.4986 44.0625 41.25 44.0625H18.75C18.5014 44.0625 18.2629 43.9637 18.0871 43.7879C17.9113 43.6121 17.8125 43.3736 17.8125 43.125V39.375C17.8125 39.1264 17.9113 38.8879 18.0871 38.7121ZM21.5625 40.3125H19.6875V42.1875H21.5625V40.3125ZM23.4375 42.1875H40.3125V40.3125H23.4375V42.1875ZM41.9129 46.2121C41.7371 46.0363 41.4986 45.9375 41.25 45.9375H18.75C18.5014 45.9375 18.2629 46.0363 18.0871 46.2121C17.9113 46.3879 17.8125 46.6264 17.8125 46.875V50.625C17.8125 50.8736 17.9113 51.1121 18.0871 51.2879C18.2629 51.4637 18.5014 51.5625 18.75 51.5625H41.25C41.4986 51.5625 41.7371 51.4637 41.9129 51.2879C42.0887 51.1121 42.1875 50.8736 42.1875 50.625V46.875C42.1875 46.6264 42.0887 46.3879 41.9129 46.2121ZM19.6875 47.8125H21.5625V49.6875H19.6875V47.8125ZM40.3125 49.6875H23.4375V47.8125H40.3125V49.6875ZM36.4778 34.2763C34.6432 35.7562 32.3571 36.5631 30 36.5627C28.5308 36.5627 27.0786 36.2486 25.7407 35.6417C24.4028 35.0348 23.21 34.149 22.2422 33.0436C20.6893 31.2703 19.7906 29.0186 19.6958 26.6634C19.6009 24.3082 20.3155 21.9916 21.7207 20.0991C23.1259 18.2067 25.1369 16.8526 27.4189 16.2624C29.7009 15.6721 32.1162 15.8813 34.2627 16.855C36.4093 17.8288 38.1576 19.5083 39.2166 21.6142C40.2755 23.72 40.5813 26.125 40.083 28.4288C39.5847 30.7327 38.3124 32.7963 36.4778 34.2763ZM30 27.1876C27.4164 27.1876 25.0603 29.1764 24.0087 32.188C24.7925 32.9799 25.7257 33.6086 26.754 34.0377C27.7824 34.4668 28.8856 34.6877 29.9999 34.6877C31.1142 34.6877 32.2175 34.4668 33.2459 34.0377C34.2742 33.6086 35.2073 32.9799 35.9912 32.188C34.9398 29.1766 32.5836 27.1876 30 27.1876ZM28.441 22.3959C28.235 22.7042 28.125 23.0667 28.125 23.4376C28.1256 23.9347 28.3233 24.4113 28.6748 24.7628C29.0263 25.1143 29.5029 25.312 30 25.3126C30.3708 25.3126 30.7334 25.2026 31.0417 24.9966C31.35 24.7906 31.5904 24.4977 31.7323 24.1551C31.8742 23.8125 31.9113 23.4355 31.839 23.0718C31.7666 22.7081 31.588 22.374 31.3258 22.1117C31.0636 21.8495 30.7295 21.6709 30.3658 21.5986C30.0021 21.5262 29.6251 21.5634 29.2825 21.7053C28.9399 21.8472 28.647 22.0875 28.441 22.3959ZM34.218 18.9412C32.9355 18.2012 31.4807 17.812 30 17.8125C28.5193 17.8121 27.0646 18.2014 25.7822 18.9414C24.4997 19.6814 23.4346 20.746 22.6939 22.0281C21.9533 23.3102 21.5633 24.7647 21.563 26.2454C21.5627 27.7261 21.9523 29.1808 22.6924 30.4632C23.7014 28.3319 25.3036 26.7218 27.1819 25.907C26.7063 25.3652 26.397 24.6977 26.291 23.9846C26.185 23.2715 26.2868 22.543 26.5842 21.8863C26.8816 21.2295 27.362 20.6725 27.9678 20.2817C28.5737 19.891 29.2793 19.6832 30.0002 19.6832C30.7212 19.6832 31.4268 19.891 32.0327 20.2817C32.6385 20.6725 33.1189 21.2295 33.4163 21.8863C33.7137 22.543 33.8155 23.2715 33.7095 23.9846C33.6035 24.6977 33.2942 25.3652 32.8186 25.907C34.6969 26.7218 36.2989 28.3319 37.308 30.4632C38.0482 29.1807 38.4377 27.726 38.4375 26.2453C38.4372 24.7646 38.0471 23.31 37.3064 22.0279C36.5657 20.7457 35.5006 19.6812 34.218 18.9412Z" fill="#0073E6"/>
</svg>
