<svg width="375" height="500" viewBox="0 0 375 500" fill="none" xmlns="http://www.w3.org/2000/svg">
<path fill-rule="evenodd" clip-rule="evenodd" d="M36.6329 10.9799C33.0583 16.379 26.9299 19.9396 19.9698 19.9396C8.94079 19.9396 0 10.9988 0 -0.0301914L2.15884e-05 -0.0598736H6.64407L6.64404 -0.0303097C6.64404 7.32924 12.6101 13.2953 19.9697 13.2953C27.3292 13.2953 33.2953 7.32924 33.2953 -0.0303097L33.2953 -0.0598736H39.9702L39.9702 -0.0303097C39.9702 7.32924 45.9363 13.2953 53.2958 13.2953C60.6554 13.2953 66.6215 7.32924 66.6215 -0.0303097L66.6215 -0.0598736H73.2954L73.2954 -0.0303097C73.2954 7.32924 79.2615 13.2953 86.621 13.2953C93.9806 13.2953 99.9467 7.32924 99.9467 -0.0303097L99.9466 -0.0598736H106.622L106.622 -0.0303097C106.622 7.32924 112.588 13.2953 119.947 13.2953C127.307 13.2953 133.273 7.32924 133.273 -0.0303097L133.273 -0.0598736H139.947L139.947 -0.0303097C139.947 7.32924 145.913 13.2953 153.273 13.2953C160.632 13.2953 166.598 7.32924 166.598 -0.0303097L166.598 -0.0598736H173.243L173.243 -0.0301914C173.243 10.9988 164.302 19.9396 153.273 19.9396C146.313 19.9396 140.185 16.3792 136.61 10.9803C133.035 16.3792 126.907 19.9396 119.947 19.9396C112.987 19.9396 106.859 16.379 103.284 10.9799C99.7096 16.379 93.5812 19.9396 86.6211 19.9396C79.6614 19.9396 73.5332 16.3793 69.9586 10.9806C66.3839 16.3793 60.2557 19.9396 53.296 19.9396C46.3359 19.9396 40.2075 16.379 36.6329 10.9799ZM173.243 -0.0598736L173.243 -0.0301914C173.243 4.03894 172.026 7.82381 169.936 10.9803C173.511 16.3792 179.639 19.9396 186.599 19.9396C197.628 19.9396 206.569 10.9988 206.569 -0.0301914L206.569 -0.0598736H199.925L199.925 -0.0303097C199.925 7.32924 193.959 13.2953 186.599 13.2953C179.24 13.2953 173.273 7.32924 173.273 -0.0303097L173.273 -0.0598736H173.243ZM186.456 -19.9995C186.503 -19.9998 186.551 -20 186.599 -20C186.647 -20 186.695 -19.9998 186.743 -19.9995H186.456ZM153.129 -19.9995C153.177 -19.9998 153.225 -20 153.273 -20C153.321 -20 153.369 -19.9998 153.417 -19.9995H153.129ZM120.091 -19.9995C120.043 -19.9998 119.995 -20 119.947 -20C119.899 -20 119.852 -19.9998 119.804 -19.9995H120.091ZM86.7647 -19.9995C86.7169 -19.9998 86.669 -20 86.6211 -20C86.5732 -20 86.5254 -19.9998 86.4775 -19.9995H86.7647ZM53.4396 -19.9995C53.3917 -19.9998 53.3439 -20 53.296 -20C53.2481 -20 53.2002 -19.9998 53.1524 -19.9995H53.4396ZM20.1134 -19.9995C20.0656 -19.9998 20.0177 -20 19.9698 -20C19.9219 -20 19.874 -19.9998 19.8262 -19.9995H20.1134ZM36.6329 50.9799C33.0682 56.3639 26.964 59.9198 20.0279 59.9395L20.1134 59.94H19.8262L19.9115 59.9395C8.90928 59.9081 0 50.9794 0 39.9698L2.15884e-05 39.9401H6.64407L6.64404 39.9697C6.64404 47.3292 12.6101 53.2953 19.9697 53.2953C27.3292 53.2953 33.2953 47.3292 33.2953 39.9697L33.2953 39.9401H39.9702L39.9702 39.9697C39.9702 47.3292 45.9363 53.2953 53.2958 53.2953C60.6554 53.2953 66.6215 47.3292 66.6215 39.9697L66.6215 39.9401H73.2954L73.2954 39.9697C73.2954 47.3292 79.2615 53.2953 86.621 53.2953C93.9806 53.2953 99.9467 47.3292 99.9467 39.9697L99.9466 39.9401H106.622L106.622 39.9697C106.622 47.3292 112.588 53.2953 119.947 53.2953C127.307 53.2953 133.273 47.3292 133.273 39.9697L133.273 39.9401H139.947L139.947 39.9697C139.947 47.3292 145.913 53.2953 153.273 53.2953C160.632 53.2953 166.598 47.3292 166.598 39.9697L166.598 39.9401H173.243L173.243 39.9698C173.243 50.9794 164.333 59.9081 153.331 59.9395L153.336 59.9396L153.417 59.94H153.129L153.215 59.9395C146.279 59.9197 140.175 56.3641 136.61 50.9803C133.045 56.3641 126.941 59.9197 120.006 59.9395L120.091 59.94H119.804L119.863 59.9396L119.889 59.9395C112.953 59.9198 106.849 56.3639 103.284 50.9799C99.7196 56.3639 93.6155 59.9197 86.6796 59.9395L86.6893 59.9396L86.7647 59.94H86.4775L86.5628 59.9395C79.6272 59.9197 73.5232 56.3642 69.9586 50.9806C66.3939 56.3642 60.2899 59.9197 53.3543 59.9395L53.4396 59.94H53.1524L53.2376 59.9395C46.3017 59.9197 40.1975 56.3639 36.6329 50.9799ZM173.243 39.9401L173.243 39.9698C173.243 44.0389 172.026 47.8238 169.936 50.9803C173.501 56.3641 179.605 59.9197 186.541 59.9395L186.515 59.9396L186.456 59.94H186.743L186.657 59.9395C197.659 59.9085 206.569 50.9796 206.569 39.9698L206.569 39.9401H199.925L199.925 39.9697C199.925 47.3292 193.959 53.2953 186.599 53.2953C179.24 53.2953 173.273 47.3292 173.273 39.9697L173.273 39.9401H173.243ZM186.456 20.0005C186.503 20.0002 186.551 20 186.599 20C186.647 20 186.695 20.0002 186.743 20.0005H186.456ZM153.129 20.0005C153.177 20.0002 153.225 20 153.273 20C153.321 20 153.369 20.0002 153.417 20.0005H153.129ZM120.091 20.0005C120.043 20.0002 119.995 20 119.947 20C119.899 20 119.852 20.0002 119.804 20.0005H120.091ZM86.7647 20.0005C86.7169 20.0002 86.669 20 86.6211 20C86.5732 20 86.5254 20.0002 86.4775 20.0005H86.7647ZM53.4396 20.0005L53.3727 20.0001L53.296 20C53.2481 20 53.2002 20.0002 53.1524 20.0005H53.4396ZM20.1134 20.0005C20.0656 20.0002 20.0177 20 19.9698 20C19.9219 20 19.874 20.0002 19.8262 20.0005H20.1134ZM20.0247 379.94C26.9621 379.921 33.0677 376.365 36.6329 370.98C40.1981 376.365 46.3037 379.921 53.241 379.94L53.1524 379.94H53.4396L53.3509 379.94C60.2879 379.921 66.3933 376.365 69.9586 370.981C73.5238 376.365 79.6292 379.921 86.5662 379.94L86.4775 379.94H86.7647L86.6761 379.94C93.6134 379.921 99.719 376.365 103.284 370.98C106.849 376.365 112.955 379.921 119.892 379.94L119.804 379.94H120.091L120.002 379.94C126.939 379.921 133.045 376.365 136.61 370.98C140.175 376.365 146.28 379.921 153.217 379.94L153.185 379.94L153.129 379.94H153.417L153.328 379.94C164.332 379.91 173.243 370.981 173.243 359.97L173.243 359.94H166.598L166.598 359.97C166.598 367.329 160.632 373.295 153.273 373.295C145.913 373.295 139.947 367.329 139.947 359.97L139.947 359.94H133.273L133.273 359.97C133.273 367.329 127.307 373.295 119.947 373.295C112.588 373.295 106.622 367.329 106.622 359.97L106.622 359.94H99.9466L99.9467 359.97C99.9467 367.329 93.9806 373.295 86.621 373.295C79.2615 373.295 73.2954 367.329 73.2954 359.97L73.2954 359.94H66.6215L66.6215 359.97C66.6215 367.329 60.6554 373.295 53.2958 373.295C45.9363 373.295 39.9702 367.329 39.9702 359.97L39.9702 359.94H33.2953L33.2953 359.97C33.2953 367.329 27.3292 373.295 19.9697 373.295C12.6101 373.295 6.64404 367.329 6.64404 359.97L6.64407 359.94H2.15884e-05L0 359.97C0 370.981 8.9121 379.911 19.9167 379.94L19.8956 379.94L19.8262 379.94H20.1134L20.0247 379.94ZM173.243 359.97L173.243 359.94H173.273L173.273 359.97C173.273 367.329 179.24 373.295 186.599 373.295C193.959 373.295 199.925 367.329 199.925 359.97L199.925 359.94H206.569L206.569 359.97C206.569 370.981 197.658 379.91 186.654 379.94L186.743 379.94H186.456L186.544 379.94C179.607 379.921 173.502 376.365 169.936 370.98C172.026 367.824 173.243 364.039 173.243 359.97ZM186.743 340.001L186.663 340L186.599 340C186.551 340 186.503 340 186.456 340.001H186.743ZM86.5616 340L86.6211 340L86.6858 340L86.7647 340.001H86.4775L86.5616 340ZM36.6329 210.98C33.0683 216.364 26.9641 219.92 20.0281 219.94L20.1134 219.94H19.8262L19.9115 219.94C8.90928 219.908 0 210.979 0 199.97L2.15884e-05 199.94H6.64407L6.64404 199.97C6.64404 207.329 12.6101 213.295 19.9697 213.295C27.3292 213.295 33.2953 207.329 33.2953 199.97L33.2953 199.94H39.9702L39.9702 199.97C39.9702 207.329 45.9363 213.295 53.2958 213.295C60.6554 213.295 66.6215 207.329 66.6215 199.97L66.6215 199.94H73.2954L73.2954 199.97C73.2954 207.329 79.2615 213.295 86.621 213.295C93.9806 213.295 99.9467 207.329 99.9467 199.97L99.9466 199.94H106.622L106.622 199.97C106.622 207.329 112.588 213.295 119.947 213.295C127.307 213.295 133.273 207.329 133.273 199.97L133.273 199.94H139.947L139.947 199.97C139.947 207.329 145.913 213.295 153.273 213.295C160.632 213.295 166.598 207.329 166.598 199.97L166.598 199.94H173.243L173.243 199.97C173.243 210.979 164.333 219.908 153.331 219.94L153.417 219.94H153.129L153.215 219.94C146.279 219.92 140.175 216.364 136.61 210.98C133.045 216.364 126.941 219.92 120.006 219.94L120.091 219.94H119.804L119.889 219.94C112.953 219.92 106.849 216.364 103.284 210.98C99.7196 216.364 93.6154 219.92 86.6795 219.94L86.7647 219.94H86.4775L86.5628 219.94C79.6272 219.92 73.5232 216.364 69.9586 210.981C66.3939 216.364 60.2899 219.92 53.3543 219.94L53.4396 219.94H53.1524L53.2376 219.94C46.3017 219.92 40.1975 216.364 36.6329 210.98ZM119.864 340L119.947 340C119.995 340 120.043 340 120.091 340.001H119.804L119.864 340ZM53.2216 340L53.296 340C53.3439 340 53.3917 340 53.4396 340.001H53.1524L53.2216 340ZM173.243 199.94L173.243 199.97C173.243 204.039 172.026 207.824 169.936 210.98C173.501 216.364 179.605 219.919 186.54 219.94L186.507 219.94L186.456 219.94H186.743L186.658 219.94C197.66 219.908 206.569 210.979 206.569 199.97L206.569 199.94H199.925L199.925 199.97C199.925 207.329 193.959 213.295 186.599 213.295C179.24 213.295 173.273 207.329 173.273 199.97L173.273 199.94H173.243ZM186.743 180.001H186.456C186.503 180 186.551 180 186.599 180C186.647 180 186.695 180 186.743 180.001ZM153.129 180.001L153.209 180L153.273 180C153.321 180 153.369 180 153.417 180.001H153.129ZM153.417 340.001C153.369 340 153.321 340 153.273 340C153.225 340 153.177 340 153.129 340.001H153.417ZM120.091 180.001C120.043 180 119.995 180 119.947 180C119.899 180 119.852 180 119.804 180.001H120.091ZM86.7647 180.001C86.7169 180 86.669 180 86.6211 180C86.5732 180 86.5254 180 86.4775 180.001H86.7647ZM53.4396 180.001L53.3845 180L53.296 180L53.2268 180L53.1524 180.001H53.4396ZM20.1134 180.001L20.0522 180L19.9698 180C19.9219 180 19.874 180 19.8262 180.001H20.1134ZM20.0281 139.94C26.9641 139.92 33.0683 136.364 36.6329 130.98C40.1974 136.364 46.3013 139.919 53.237 139.94L53.1524 139.94H53.4396L53.3543 139.94C60.2899 139.92 66.3939 136.364 69.9586 130.981C73.5232 136.364 79.6272 139.92 86.5628 139.94L86.4775 139.94H86.7647L86.6795 139.94C93.6154 139.92 99.7196 136.364 103.284 130.98C106.849 136.364 112.953 139.92 119.889 139.94L119.804 139.94H120.091L120.006 139.94C126.941 139.92 133.045 136.364 136.61 130.98C140.175 136.364 146.279 139.92 153.215 139.94L153.177 139.94L153.129 139.94H153.417L153.331 139.94C164.333 139.908 173.243 130.979 173.243 119.97L173.243 119.94H166.598L166.598 119.97C166.598 127.329 160.632 133.295 153.273 133.295C145.913 133.295 139.947 127.329 139.947 119.97L139.947 119.94H133.273L133.273 119.97C133.273 127.329 127.307 133.295 119.947 133.295C112.588 133.295 106.622 127.329 106.622 119.97L106.622 119.94H99.9466L99.9467 119.97C99.9467 127.329 93.9806 133.295 86.621 133.295C79.2615 133.295 73.2954 127.329 73.2954 119.97L73.2954 119.94H66.6215L66.6215 119.97C66.6215 127.329 60.6554 133.295 53.2958 133.295C45.9363 133.295 39.9702 127.329 39.9702 119.97L39.9702 119.94H33.2953L33.2953 119.97C33.2953 127.329 27.3292 133.295 19.9697 133.295C12.6101 133.295 6.64404 127.329 6.64404 119.97L6.64407 119.94H2.15884e-05L0 119.97C0 130.979 8.90928 139.908 19.9115 139.94L19.8262 139.94H20.1134L20.0281 139.94ZM173.243 119.97L173.243 119.94H173.273L173.273 119.97C173.273 127.329 179.24 133.295 186.599 133.295C193.959 133.295 199.925 127.329 199.925 119.97L199.925 119.94H206.569L206.569 119.97C206.569 130.979 197.66 139.908 186.658 139.94L186.743 139.94H186.456L186.541 139.94C179.605 139.92 173.501 136.364 169.936 130.98C172.026 127.824 173.243 124.039 173.243 119.97ZM19.8262 340.001C19.874 340 19.9219 340 19.9698 340C20.0177 340 20.0656 340 20.1134 340.001H19.8262ZM186.456 100.001H186.743C186.695 100 186.647 100 186.599 100C186.551 100 186.503 100 186.456 100.001ZM153.129 100.001H153.417L153.315 100L153.273 100C153.225 100 153.177 100 153.129 100.001ZM119.947 100L120.001 100L120.091 100.001H119.804C119.852 100 119.899 100 119.947 100ZM86.6211 100C86.669 100 86.7169 100 86.7647 100.001H86.4775C86.5254 100 86.5732 100 86.6211 100ZM53.296 100C53.3439 100 53.3917 100 53.4396 100.001H53.1524L53.2484 100L53.296 100ZM20.1134 100.001H19.8262C19.874 100 19.9219 100 19.9698 100C20.0177 100 20.0656 100 20.1134 100.001ZM0 439.97C0 450.981 8.91115 459.91 19.9149 459.94L19.8262 459.94H20.1134L20.0247 459.94C26.9621 459.921 33.0677 456.365 36.6329 450.98C40.1981 456.365 46.3037 459.921 53.241 459.94L53.1524 459.94H53.4396L53.3509 459.94C60.2879 459.921 66.3933 456.365 69.9586 450.981C73.5238 456.365 79.6292 459.921 86.5662 459.94L86.4775 459.94H86.7647L86.695 459.94L86.6684 459.94C93.6089 459.923 99.7177 456.367 103.284 450.98C106.851 456.367 112.959 459.923 119.899 459.94L119.87 459.94L119.804 459.94H120.091L120.002 459.94C126.939 459.921 133.045 456.365 136.61 450.98C140.175 456.365 146.281 459.921 153.218 459.94L153.129 459.94H153.417L153.328 459.94C164.332 459.91 173.243 450.981 173.243 439.97L173.243 439.94H166.598L166.598 439.97C166.598 447.329 160.632 453.295 153.273 453.295C145.913 453.295 139.947 447.329 139.947 439.97L139.947 439.94H133.273L133.273 439.97C133.273 447.329 127.307 453.295 119.947 453.295C112.588 453.295 106.622 447.329 106.622 439.97L106.622 439.94H99.9466L99.9467 439.97C99.9467 447.329 93.9806 453.295 86.621 453.295C79.2615 453.295 73.2954 447.329 73.2954 439.97L73.2954 439.94H66.6215L66.6215 439.97C66.6215 447.329 60.6554 453.295 53.2958 453.295C45.9363 453.295 39.9702 447.329 39.9702 439.97L39.9702 439.94H33.2953L33.2953 439.97C33.2953 447.329 27.3292 453.295 19.9697 453.295C12.6101 453.295 6.64404 447.329 6.64404 439.97L6.64407 439.94H2.15884e-05L0 439.97ZM173.243 439.97L173.243 439.94H173.273L173.273 439.97C173.273 447.329 179.24 453.295 186.599 453.295C193.959 453.295 199.925 447.329 199.925 439.97L199.925 439.94H200H206.569H206.644L206.644 439.97C206.644 447.329 212.61 453.295 219.97 453.295C227.329 453.295 233.295 447.329 233.295 439.97L233.295 439.94H239.97L239.97 439.97C239.97 447.329 245.936 453.295 253.296 453.295C260.655 453.295 266.621 447.329 266.621 439.97L266.621 439.94H273.295L273.295 439.97C273.295 447.329 279.261 453.295 286.621 453.295C293.981 453.295 299.947 447.329 299.947 439.97L299.947 439.94H306.622L306.622 439.97C306.622 447.329 312.588 453.295 319.947 453.295C327.307 453.295 333.273 447.329 333.273 439.97L333.273 439.94H339.947L339.947 439.97C339.947 447.329 345.913 453.295 353.273 453.295C360.632 453.295 366.599 447.329 366.599 439.97L366.598 439.94H373.243L373.243 439.97C373.243 450.981 364.332 459.91 353.328 459.94L353.417 459.94H353.129L353.218 459.94C346.281 459.921 340.175 456.365 336.61 450.98C333.045 456.365 326.939 459.921 320.002 459.94H320.01L320.091 459.94H319.804L319.884 459.94L319.899 459.94C312.959 459.923 306.85 456.366 303.284 450.98C299.719 456.365 293.613 459.921 286.676 459.94L286.765 459.94H286.478L286.566 459.94C279.629 459.921 273.524 456.365 269.959 450.981C266.393 456.365 260.288 459.921 253.351 459.94L253.44 459.94H253.152L253.241 459.94C246.304 459.921 240.198 456.365 236.633 450.98C233.068 456.365 226.962 459.921 220.025 459.94L220.113 459.94H219.826L219.915 459.94C212.963 459.921 206.847 456.35 203.285 450.946C199.723 456.35 193.606 459.921 186.654 459.94L186.743 459.94H186.456L186.523 459.94L186.551 459.94C179.611 459.923 173.503 456.367 169.936 450.98C172.026 447.824 173.243 444.039 173.243 439.97ZM119.933 420H119.947C119.995 420 120.043 420 120.091 420.001H119.804C119.847 420 119.89 420 119.933 420ZM19.9698 420L20.0147 420L20.1134 420.001H19.8262C19.874 420 19.9219 420 19.9698 420ZM373.243 439.97V439.94H373.273L373.273 439.97C373.273 447.329 379.24 453.295 386.599 453.295C393.959 453.295 399.925 447.329 399.925 439.97L399.925 439.94H406.569L406.569 439.97C406.569 450.981 397.658 459.91 386.654 459.94L386.743 459.94H386.456L386.544 459.94C379.607 459.921 373.502 456.365 369.936 450.98C372.026 447.824 373.243 444.039 373.243 439.97ZM53.296 420L53.3779 420L53.4396 420.001H53.1524C53.2002 420 53.2481 420 53.296 420ZM386.599 420L386.545 420L386.456 420.001H386.743C386.695 420 386.647 420 386.599 420ZM353.129 420.001H353.417L353.326 420L353.273 420C353.225 420 353.177 420 353.129 420.001ZM186.599 420C186.551 420 186.503 420 186.456 420.001H186.743C186.695 420 186.647 420 186.599 420ZM153.273 420C153.225 420 153.177 420 153.129 420.001H153.417C153.369 420 153.321 420 153.273 420ZM86.6211 420C86.669 420 86.7169 420 86.7647 420.001H86.4775C86.5254 420 86.5732 420 86.6211 420ZM319.947 420C319.995 420 320.043 420 320.091 420.001H319.804L319.897 420L319.947 420ZM286.621 420L286.67 420L286.765 420.001H286.478L286.531 420L286.587 420L286.621 420ZM253.296 420L253.382 420L253.44 420.001H253.152L253.189 420L253.296 420ZM220.113 420.001H219.826C219.874 420 219.922 420 219.97 420C220.018 420 220.066 420 220.113 420.001ZM20.0247 299.94C26.9621 299.921 33.0677 296.365 36.6329 290.98C40.1981 296.365 46.3037 299.921 53.241 299.94C53.2115 299.94 53.1819 299.94 53.1524 299.94H53.4396C53.41 299.94 53.3805 299.94 53.3509 299.94C60.2879 299.921 66.3933 296.365 69.9586 290.981C73.5238 296.365 79.6292 299.921 86.5662 299.94C86.5366 299.94 86.5071 299.94 86.4775 299.94H86.7647C86.7398 299.94 86.7148 299.94 86.6898 299.94C86.6854 299.94 86.681 299.94 86.6765 299.94C93.6137 299.921 99.7191 296.365 103.284 290.98C106.85 296.365 112.955 299.921 119.893 299.94C119.889 299.94 119.885 299.94 119.881 299.94C119.855 299.94 119.83 299.94 119.804 299.94H120.091C120.061 299.94 120.032 299.94 120.002 299.94C126.939 299.921 133.045 296.365 136.61 290.98C140.175 296.365 146.281 299.921 153.218 299.94C153.188 299.94 153.159 299.94 153.129 299.94H153.417C153.387 299.94 153.357 299.94 153.328 299.94C164.332 299.91 173.243 290.981 173.243 279.97L173.243 279.94H166.598L166.598 279.97C166.598 287.329 160.632 293.295 153.273 293.295C145.913 293.295 139.947 287.329 139.947 279.97L139.947 279.94H133.273L133.273 279.97C133.273 287.329 127.307 293.295 119.947 293.295C112.588 293.295 106.622 287.329 106.622 279.97L106.622 279.94H99.9466L99.9467 279.97C99.9467 287.329 93.9806 293.295 86.621 293.295C79.2615 293.295 73.2954 287.329 73.2954 279.97L73.2954 279.94H66.6215L66.6215 279.97C66.6215 287.329 60.6554 293.295 53.2958 293.295C45.9363 293.295 39.9702 287.329 39.9702 279.97L39.9702 279.94H33.2953L33.2953 279.97C33.2953 287.329 27.3292 293.295 19.9697 293.295C12.6101 293.295 6.64404 287.329 6.64404 279.97L6.64407 279.94H2.15884e-05L0 279.97C0 290.981 8.91115 299.91 19.9149 299.94C19.8853 299.94 19.8558 299.94 19.8262 299.94H20.1134C20.0839 299.94 20.0543 299.94 20.0247 299.94ZM173.243 279.97L173.243 279.94H173.273L173.273 279.97C173.273 287.329 179.24 293.295 186.599 293.295C193.959 293.295 199.925 287.329 199.925 279.97L199.925 279.94H206.569L206.569 279.97C206.569 290.981 197.658 299.91 186.654 299.94C186.684 299.94 186.713 299.94 186.743 299.94H186.456C186.485 299.94 186.515 299.94 186.544 299.94C179.607 299.921 173.502 296.365 169.936 290.98C172.026 287.824 173.243 284.039 173.243 279.97ZM186.456 260.001H186.743C186.695 260 186.647 260 186.599 260C186.551 260 186.503 260 186.456 260.001ZM153.273 260L153.221 260L153.129 260.001H153.417C153.369 260 153.321 260 153.273 260ZM120.035 260L120.091 260.001H119.804L119.89 260L119.947 260L120.035 260ZM86.7211 260L86.7647 260.001H86.4775L86.5487 260L86.6211 260L86.7211 260ZM53.296 260L53.3474 260L53.4396 260.001H53.1524C53.2002 260 53.2481 260 53.296 260ZM20.1134 260.001H19.8262C19.874 260 19.9219 260 19.9698 260L20.0257 260L20.1134 260.001ZM36.6329 90.9194C33.0583 96.3184 26.9299 99.8791 19.9698 99.8791C8.94079 99.8791 0 90.9383 0 79.9093L2.15884e-05 79.8796H6.64407L6.64404 79.9091C6.64404 87.2687 12.6101 93.2348 19.9697 93.2348C27.3292 93.2348 33.2953 87.2687 33.2953 79.9091L33.2953 79.8796H39.9702L39.9702 79.9091C39.9702 87.2687 45.9363 93.2348 53.2958 93.2348C60.6554 93.2348 66.6215 87.2687 66.6215 79.9091L66.6215 79.8796H73.2954L73.2954 79.9091C73.2954 87.2687 79.2615 93.2348 86.621 93.2348C93.9806 93.2348 99.9467 87.2687 99.9467 79.9091L99.9466 79.8796H106.622L106.622 79.9091C106.622 87.2687 112.588 93.2348 119.947 93.2348C127.307 93.2348 133.273 87.2687 133.273 79.9091L133.273 79.8796H139.947L139.947 79.9091C139.947 87.2687 145.913 93.2348 153.273 93.2348C160.632 93.2348 166.598 87.2687 166.598 79.9091L166.598 79.8796H173.243L173.243 79.9093C173.243 90.9383 164.302 99.8791 153.273 99.8791C146.313 99.8791 140.185 96.3186 136.61 90.9198C133.035 96.3186 126.907 99.8791 119.947 99.8791C112.987 99.8791 106.859 96.3184 103.284 90.9194C99.7096 96.3184 93.5812 99.8791 86.6211 99.8791C79.6614 99.8791 73.5332 96.3188 69.9586 90.9201C66.3839 96.3188 60.2557 99.8791 53.296 99.8791C46.3359 99.8791 40.2075 96.3184 36.6329 90.9194ZM173.243 79.8796L173.243 79.9093C173.243 83.9784 172.026 87.7633 169.936 90.9197C173.511 96.3186 179.639 99.8791 186.599 99.8791C197.628 99.8791 206.569 90.9383 206.569 79.9093L206.569 79.8796H199.925L199.925 79.9091C199.925 87.2687 193.959 93.2348 186.599 93.2348C179.24 93.2348 173.273 87.2687 173.273 79.9091L173.273 79.8796H173.243ZM19.9698 419.879C26.9299 419.879 33.0583 416.318 36.6329 410.919C40.2075 416.318 46.3359 419.879 53.296 419.879C60.2557 419.879 66.3839 416.319 69.9586 410.92C73.5332 416.319 79.6614 419.879 86.6211 419.879C93.5812 419.879 99.7096 416.318 103.284 410.919C106.859 416.318 112.987 419.879 119.947 419.879C126.907 419.879 133.035 416.319 136.61 410.92C140.185 416.319 146.313 419.879 153.273 419.879C164.302 419.879 173.243 410.938 173.243 399.909L173.243 399.88H166.598L166.598 399.909C166.598 407.269 160.632 413.235 153.273 413.235C145.913 413.235 139.947 407.269 139.947 399.909L139.947 399.88H133.273L133.273 399.909C133.273 407.269 127.307 413.235 119.947 413.235C112.588 413.235 106.622 407.269 106.622 399.909L106.622 399.88H99.9466L99.9467 399.909C99.9467 407.269 93.9806 413.235 86.621 413.235C79.2615 413.235 73.2954 407.269 73.2954 399.909L73.2954 399.88H66.6215L66.6215 399.909C66.6215 407.269 60.6554 413.235 53.2958 413.235C45.9363 413.235 39.9702 407.269 39.9702 399.909L39.9702 399.88H33.2953L33.2953 399.909C33.2953 407.269 27.3292 413.235 19.9697 413.235C12.6101 413.235 6.64404 407.269 6.64404 399.909L6.64407 399.88H2.15884e-05L0 399.909C0 410.938 8.94079 419.879 19.9698 419.879ZM173.243 399.909L173.243 399.88H173.273L173.273 399.909C173.273 407.269 179.24 413.235 186.599 413.235C193.959 413.235 199.925 407.269 199.925 399.909L199.925 399.88H206.569L206.569 399.909C206.569 410.938 197.628 419.879 186.599 419.879C179.639 419.879 173.511 416.319 169.936 410.92C172.026 407.763 173.243 403.978 173.243 399.909ZM36.6329 250.919C33.0583 256.318 26.9299 259.879 19.9698 259.879C8.94079 259.879 0 250.938 0 239.909L2.15884e-05 239.88H6.64407L6.64404 239.909C6.64404 247.269 12.6101 253.235 19.9697 253.235C27.3292 253.235 33.2953 247.269 33.2953 239.909L33.2953 239.88H39.9702L39.9702 239.909C39.9702 247.269 45.9363 253.235 53.2958 253.235C60.6554 253.235 66.6215 247.269 66.6215 239.909L66.6215 239.88H73.2954L73.2954 239.909C73.2954 247.269 79.2615 253.235 86.621 253.235C93.9806 253.235 99.9467 247.269 99.9467 239.909L99.9466 239.88H106.622L106.622 239.909C106.622 247.269 112.588 253.235 119.947 253.235C127.307 253.235 133.273 247.269 133.273 239.909L133.273 239.88H139.947L139.947 239.909C139.947 247.269 145.913 253.235 153.273 253.235C160.632 253.235 166.598 247.269 166.598 239.909L166.598 239.88H173.243L173.243 239.909C173.243 250.938 164.302 259.879 153.273 259.879C146.313 259.879 140.185 256.319 136.61 250.92C133.035 256.319 126.907 259.879 119.947 259.879C112.987 259.879 106.859 256.318 103.284 250.919C99.7096 256.318 93.5812 259.879 86.6211 259.879C79.6614 259.879 73.5332 256.319 69.9586 250.92C66.3839 256.319 60.2557 259.879 53.296 259.879C46.3359 259.879 40.2075 256.318 36.6329 250.919ZM173.243 239.88L173.243 239.909C173.243 243.978 172.026 247.763 169.936 250.92C173.511 256.319 179.639 259.879 186.599 259.879C197.628 259.879 206.569 250.938 206.569 239.909L206.569 239.88H199.925L199.925 239.909C199.925 247.269 193.959 253.235 186.599 253.235C179.24 253.235 173.273 247.269 173.273 239.909L173.273 239.88H173.243ZM19.9698 179.879C26.9299 179.879 33.0583 176.318 36.6329 170.919C40.2075 176.318 46.3359 179.879 53.296 179.879C60.2557 179.879 66.3839 176.319 69.9586 170.92C73.5332 176.319 79.6614 179.879 86.6211 179.879C93.5812 179.879 99.7096 176.318 103.284 170.919C106.859 176.318 112.987 179.879 119.947 179.879C126.907 179.879 133.035 176.319 136.61 170.92C140.185 176.319 146.313 179.879 153.273 179.879C164.302 179.879 173.243 170.938 173.243 159.909L173.243 159.88H166.598L166.598 159.909C166.598 167.269 160.632 173.235 153.273 173.235C145.913 173.235 139.947 167.269 139.947 159.909L139.947 159.88H133.273L133.273 159.909C133.273 167.269 127.307 173.235 119.947 173.235C112.588 173.235 106.622 167.269 106.622 159.909L106.622 159.88H99.9466L99.9467 159.909C99.9467 167.269 93.9806 173.235 86.621 173.235C79.2615 173.235 73.2954 167.269 73.2954 159.909L73.2954 159.88H66.6215L66.6215 159.909C66.6215 167.269 60.6554 173.235 53.2958 173.235C45.9363 173.235 39.9702 167.269 39.9702 159.909L39.9702 159.88H33.2953L33.2953 159.909C33.2953 167.269 27.3292 173.235 19.9697 173.235C12.6101 173.235 6.64404 167.269 6.64404 159.909L6.64407 159.88H2.15884e-05L0 159.909C0 170.938 8.94079 179.879 19.9698 179.879ZM173.243 159.909L173.243 159.88H173.273L173.273 159.909C173.273 167.269 179.24 173.235 186.599 173.235C193.959 173.235 199.925 167.269 199.925 159.909L199.925 159.88H206.569L206.569 159.909C206.569 170.938 197.628 179.879 186.599 179.879C179.639 179.879 173.511 176.319 169.936 170.92C172.026 167.763 173.243 163.978 173.243 159.909ZM19.9698 499.879C26.9299 499.879 33.0583 496.318 36.6329 490.919C40.2075 496.318 46.3359 499.879 53.296 499.879C60.2557 499.879 66.3839 496.319 69.9586 490.92C73.5332 496.319 79.6614 499.879 86.6211 499.879C93.5812 499.879 99.7096 496.318 103.284 490.919C106.859 496.318 112.987 499.879 119.947 499.879C126.907 499.879 133.035 496.319 136.61 490.92C140.185 496.319 146.313 499.879 153.273 499.879C164.302 499.879 173.243 490.938 173.243 479.909L173.243 479.88H166.598L166.598 479.909C166.598 487.269 160.632 493.235 153.273 493.235C145.913 493.235 139.947 487.269 139.947 479.909L139.947 479.88H133.273L133.273 479.909C133.273 487.269 127.307 493.235 119.947 493.235C112.588 493.235 106.622 487.269 106.622 479.909L106.622 479.88H99.9466L99.9467 479.909C99.9467 487.269 93.9806 493.235 86.621 493.235C79.2615 493.235 73.2954 487.269 73.2954 479.909L73.2954 479.88H66.6215L66.6215 479.909C66.6215 487.269 60.6554 493.235 53.2958 493.235C45.9363 493.235 39.9702 487.269 39.9702 479.909L39.9702 479.88H33.2953L33.2953 479.909C33.2953 487.269 27.3292 493.235 19.9697 493.235C12.6101 493.235 6.64404 487.269 6.64404 479.909L6.64407 479.88H2.15884e-05L0 479.909C0 490.938 8.94079 499.879 19.9698 499.879ZM173.243 479.909L173.243 479.88H173.273L173.273 479.909C173.273 487.269 179.24 493.235 186.599 493.235C193.959 493.235 199.925 487.269 199.925 479.909L199.925 479.88H200H206.569H206.644L206.644 479.909C206.644 487.269 212.61 493.235 219.97 493.235C227.329 493.235 233.295 487.269 233.295 479.909L233.295 479.88H239.97L239.97 479.909C239.97 487.269 245.936 493.235 253.296 493.235C260.655 493.235 266.621 487.269 266.621 479.909L266.621 479.88H273.295L273.295 479.909C273.295 487.269 279.261 493.235 286.621 493.235C293.981 493.235 299.947 487.269 299.947 479.909L299.947 479.88H306.622L306.622 479.909C306.622 487.269 312.588 493.235 319.947 493.235C327.307 493.235 333.273 487.269 333.273 479.909L333.273 479.88H339.947L339.947 479.909C339.947 487.269 345.913 493.235 353.273 493.235C360.632 493.235 366.599 487.269 366.599 479.909L366.598 479.88H373.243L373.243 479.909C373.243 490.938 364.302 499.879 353.273 499.879C346.313 499.879 340.185 496.319 336.61 490.92C333.035 496.319 326.907 499.879 319.947 499.879C312.987 499.879 306.859 496.318 303.284 490.919C299.71 496.318 293.581 499.879 286.621 499.879C279.661 499.879 273.533 496.319 269.959 490.92C266.384 496.319 260.256 499.879 253.296 499.879C246.336 499.879 240.208 496.318 236.633 490.919C233.058 496.318 226.93 499.879 219.97 499.879C212.995 499.879 206.856 496.304 203.285 490.886C199.713 496.304 193.574 499.879 186.599 499.879C179.639 499.879 173.511 496.319 169.936 490.92C172.026 487.763 173.243 483.978 173.243 479.909ZM373.243 479.909V479.88H373.273L373.273 479.909C373.273 487.269 379.24 493.235 386.599 493.235C393.959 493.235 399.925 487.269 399.925 479.909L399.925 479.88H406.569L406.569 479.909C406.569 490.938 397.628 499.879 386.599 499.879C379.639 499.879 373.511 496.319 369.936 490.92C372.026 487.763 373.243 483.978 373.243 479.909ZM19.9698 339.879C26.9299 339.879 33.0583 336.318 36.6329 330.919C40.2075 336.318 46.3359 339.879 53.296 339.879C60.2557 339.879 66.3839 336.319 69.9586 330.92C73.5332 336.319 79.6614 339.879 86.6211 339.879C93.5812 339.879 99.7096 336.318 103.284 330.919C106.859 336.318 112.987 339.879 119.947 339.879C126.907 339.879 133.035 336.319 136.61 330.92C140.185 336.319 146.313 339.879 153.273 339.879C164.302 339.879 173.243 330.938 173.243 319.909L173.243 319.88H166.598L166.598 319.909C166.598 327.269 160.632 333.235 153.273 333.235C145.913 333.235 139.947 327.269 139.947 319.909L139.947 319.88H133.273L133.273 319.909C133.273 327.269 127.307 333.235 119.947 333.235C112.588 333.235 106.622 327.269 106.622 319.909L106.622 319.88H99.9466L99.9467 319.909C99.9467 327.269 93.9806 333.235 86.621 333.235C79.2615 333.235 73.2954 327.269 73.2954 319.909L73.2954 319.88H66.6215L66.6215 319.909C66.6215 327.269 60.6554 333.235 53.2958 333.235C45.9363 333.235 39.9702 327.269 39.9702 319.909L39.9702 319.88H33.2953L33.2953 319.909C33.2953 327.269 27.3292 333.235 19.9697 333.235C12.6101 333.235 6.64404 327.269 6.64404 319.909L6.64407 319.88H2.15884e-05L0 319.909C0 330.938 8.94079 339.879 19.9698 339.879ZM173.243 319.909L173.243 319.88H173.273L173.273 319.909C173.273 327.269 179.24 333.235 186.599 333.235C193.959 333.235 199.925 327.269 199.925 319.909L199.925 319.88H206.569L206.569 319.909C206.569 330.938 197.628 339.879 186.599 339.879C179.639 339.879 173.511 336.319 169.936 330.92C172.026 327.763 173.243 323.978 173.243 319.909Z" fill="#EEEEEE"/>
</svg>
